<svg width="35" height="43" viewBox="0 0 35 43" fill="none" xmlns="http://www.w3.org/2000/svg">
<path d="M4.25 42.125C3.21875 42.125 2.33594 41.7578 1.60156 41.0234C0.867188 40.2891 0.5 39.4062 0.5 38.375V4.625C0.5 3.59375 0.867188 2.71094 1.60156 1.97656C2.33594 1.24219 3.21875 0.875 4.25 0.875H23C24.0312 0.875 24.9141 1.24219 25.6484 1.97656C26.3828 2.71094 26.75 3.59375 26.75 4.625V12.125H23V10.25H4.25V32.75H23V30.875H26.75V38.375C26.75 39.4062 26.3828 40.2891 25.6484 41.0234C24.9141 41.7578 24.0312 42.125 23 42.125H4.25ZM4.25 36.5V38.375H23V36.5H4.25ZM21.0312 29L13.0625 21.0312L15.6875 18.4062L21.0312 23.75L31.625 13.1562L34.25 15.7813L21.0312 29ZM4.25 6.5H23V4.625H4.25V6.5Z" fill="white"/>
</svg>
