<svg width="36" height="36" viewBox="0 0 36 36" fill="none" xmlns="http://www.w3.org/2000/svg">
<path d="M18.7501 9.66C18.7501 9.24579 18.4143 8.91 18.0001 8.91C17.5859 8.91 17.2501 9.24579 17.2501 9.66H18.7501ZM17.2501 14.655C17.2501 15.0692 17.5859 15.405 18.0001 15.405C18.4143 15.405 18.7501 15.0692 18.7501 14.655H17.2501ZM7.09509 19.56L6.45295 19.1725L6.4517 19.1746L7.09509 19.56ZM5.19009 22.74L4.5467 22.3546L4.54567 22.3563L5.19009 22.74ZM6.99009 27.615L6.75292 28.3265L6.75337 28.3267L6.99009 27.615ZM29.0851 27.615L29.3218 28.3267L29.3223 28.3265L29.0851 27.615ZM30.8851 22.74L31.5287 22.3549L31.5285 22.3546L30.8851 22.74ZM28.9801 19.56L29.6235 19.1746L29.6222 19.1725L28.9801 19.56ZM28.0351 12.99H28.7851L28.7851 12.988L28.0351 12.99ZM17.2501 9.66V14.655H18.7501V9.66H17.2501ZM18.0301 2.25C12.0959 2.25 7.29009 7.05579 7.29009 12.99H8.79009C8.79009 7.88421 12.9243 3.75 18.0301 3.75V2.25ZM7.29009 12.99V16.14H8.79009V12.99H7.29009ZM7.29009 16.14C7.29009 16.5618 7.20071 17.1294 7.04145 17.7069C6.88208 18.2848 6.66862 18.8151 6.45295 19.1725L7.73723 19.9475C8.04656 19.4349 8.3056 18.7652 8.48748 18.1056C8.66947 17.4456 8.79009 16.7382 8.79009 16.14H7.29009ZM6.4517 19.1746L4.5467 22.3546L5.83348 23.1254L7.73848 19.9454L6.4517 19.1746ZM4.54567 22.3563C3.85592 23.5147 3.72584 24.7891 4.13781 25.9043C4.5499 27.0198 5.47681 27.9011 6.75292 28.3265L7.22726 26.9035C6.34337 26.6089 5.78528 26.0352 5.54487 25.3845C5.30434 24.7334 5.35426 23.9303 5.83451 23.1237L4.54567 22.3563ZM6.75337 28.3267C14.077 30.7628 21.9981 30.7628 29.3218 28.3267L28.8484 26.9033C21.832 29.2372 14.2431 29.2372 7.22681 26.9033L6.75337 28.3267ZM29.3223 28.3265C31.8049 27.499 32.8683 24.5938 31.5287 22.3549L30.2415 23.1251C31.0918 24.5462 30.4153 26.381 28.8479 26.9035L29.3223 28.3265ZM31.5285 22.3546L29.6235 19.1746L28.3367 19.9454L30.2417 23.1254L31.5285 22.3546ZM29.6222 19.1725C29.4071 18.816 29.1936 18.2826 29.0339 17.7018C28.8743 17.1214 28.7851 16.5539 28.7851 16.14H27.2851C27.2851 16.7311 27.4059 17.4386 27.5875 18.0994C27.7691 18.7599 28.0281 19.434 28.3379 19.9475L29.6222 19.1725ZM28.7851 16.14V12.99H27.2851V16.14H28.7851ZM28.7851 12.988C28.769 7.08574 23.9347 2.25 18.0301 2.25V3.75C23.1055 3.75 27.2712 7.91426 27.2851 12.992L28.7851 12.988ZM22.2451 28.23C22.2451 30.5608 20.3309 32.475 18.0001 32.475V33.975C21.1593 33.975 23.7451 31.3892 23.7451 28.23H22.2451ZM18.0001 32.475C16.845 32.475 15.7727 31.992 15.0054 31.2247L13.9448 32.2853C14.9774 33.318 16.4252 33.975 18.0001 33.975V32.475ZM15.0054 31.2247C14.2381 30.4573 13.7551 29.3851 13.7551 28.23H12.2551C12.2551 29.8049 12.9121 31.2527 13.9448 32.2853L15.0054 31.2247Z" fill="white"/>
</svg>
