<svg width="84" height="84" viewBox="0 0 84 84" fill="none" xmlns="http://www.w3.org/2000/svg">
<path d="M16.375 63.25C19.9167 60.5417 23.875 58.4063 28.25 56.8438C32.625 55.2813 37.2084 54.5 42 54.5C46.7917 54.5 51.375 55.2813 55.75 56.8438C60.125 58.4063 64.0834 60.5417 67.625 63.25C70.0556 60.4028 71.948 57.1736 73.3021 53.5625C74.6563 49.9514 75.3334 46.0972 75.3334 42C75.3334 32.7639 72.0868 24.8993 65.5938 18.4063C59.1007 11.9132 51.2361 8.66668 42 8.66668C32.7639 8.66668 24.8993 11.9132 18.4063 18.4063C11.9132 24.8993 8.66671 32.7639 8.66671 42C8.66671 46.0972 9.34379 49.9514 10.698 53.5625C12.0521 57.1736 13.9445 60.4028 16.375 63.25ZM42 46.1667C37.9028 46.1667 34.448 44.7604 31.6355 41.9479C28.823 39.1354 27.4167 35.6806 27.4167 31.5833C27.4167 27.4861 28.823 24.0313 31.6355 21.2188C34.448 18.4063 37.9028 17 42 17C46.0973 17 49.5521 18.4063 52.3646 21.2188C55.1771 24.0313 56.5834 27.4861 56.5834 31.5833C56.5834 35.6806 55.1771 39.1354 52.3646 41.9479C49.5521 44.7604 46.0973 46.1667 42 46.1667ZM42 83.6667C36.2361 83.6667 30.8195 82.5729 25.75 80.3854C20.6806 78.1979 16.2709 75.2292 12.5209 71.4792C8.77087 67.7292 5.80212 63.3195 3.61462 58.25C1.42712 53.1806 0.333374 47.7639 0.333374 42C0.333374 36.2361 1.42712 30.8195 3.61462 25.75C5.80212 20.6806 8.77087 16.2708 12.5209 12.5208C16.2709 8.77084 20.6806 5.80209 25.75 3.61459C30.8195 1.42709 36.2361 0.333344 42 0.333344C47.7639 0.333344 53.1806 1.42709 58.25 3.61459C63.3195 5.80209 67.7292 8.77084 71.4792 12.5208C75.2292 16.2708 78.198 20.6806 80.3855 25.75C82.573 30.8195 83.6667 36.2361 83.6667 42C83.6667 47.7639 82.573 53.1806 80.3855 58.25C78.198 63.3195 75.2292 67.7292 71.4792 71.4792C67.7292 75.2292 63.3195 78.1979 58.25 80.3854C53.1806 82.5729 47.7639 83.6667 42 83.6667Z" fill="white"/>
</svg>
